<?xml version="1.0" encoding="utf-8"?>
<!-- Generator: Adobe Illustrator 24.3.0, SVG Export Plug-In . SVG Version: 6.00 Build 0)  -->
<svg version="1.1" id="Capa_1" xmlns="http://www.w3.org/2000/svg" xmlns:xlink="http://www.w3.org/1999/xlink" x="0px" y="0px"
	 viewBox="0 0 543.2 92.6" style="enable-background:new 0 0 543.2 92.6;" xml:space="preserve">
<g>
	<path d="M289,57.4v33.9h-15.8V1.3h26.5c7.1,0,12.6,1.7,16.5,5.2c3.9,3.5,5.8,8.4,5.8,14.8v15.4c0,10.1-3.7,16.5-11,19.2l14.2,35.4
		h-17.3l-12.5-33.9L289,57.4L289,57.4z M289,14.8v29.8h9.2c2.9,0,5-0.6,6.2-1.9s1.9-3.3,1.9-6.2v-14c0-5.1-2.7-7.6-8.1-7.6H289z"/>
	<path d="M333.1,22.5c0-6.8,2.1-12.3,6.4-16.4c4.3-4.1,10.6-6.1,19-6.1s14.8,2,19.1,6.1c4.3,4.1,6.5,9.5,6.5,16.4v47.7
		c0,6.8-2.2,12.3-6.5,16.3c-4.3,4.1-10.7,6.1-19.1,6.1s-14.8-2-19-6.1s-6.4-9.5-6.4-16.3L333.1,22.5L333.1,22.5z M368.5,23.2
		c0-5.9-3.3-8.9-9.8-8.9s-9.8,3-9.8,8.9v46.1c0,5.9,3.3,8.9,9.8,8.9s9.8-3,9.8-8.9V23.2z"/>
	<path d="M395.3,22.5c0-6.8,2.1-12.3,6.4-16.4C406,2,412.4,0,420.8,0s14.8,2,19.1,6.1c4.3,4.1,6.5,9.5,6.5,16.4v47.7
		c0,6.8-2.2,12.3-6.5,16.3c-4.3,4.1-10.7,6.1-19.1,6.1s-14.8-2-19-6.1s-6.4-9.5-6.4-16.3V22.5z M430.6,23.2c0-5.9-3.3-8.9-9.8-8.9
		s-9.8,3-9.8,8.9v46.1c0,5.9,3.3,8.9,9.8,8.9s9.8-3,9.8-8.9V23.2z"/>
	<path d="M44.7,21.7v7.6c0,8.6-3.3,14.1-9.9,16.6c7.1,2.4,10.7,8.1,10.7,17v8c0,6.3-1.8,11.3-5.4,14.9c-3.6,3.6-9,5.4-16.1,5.4H0
		v-90h23.2c7.1,0,12.5,1.8,16.1,5.4C42.9,10.4,44.7,15.4,44.7,21.7z M22.4,9.7H9.5V42h12.9c8.6,0,12.9-4.1,12.9-12.3V22
		C35.2,13.8,30.9,9.7,22.4,9.7z M36,70.8v-8c0-8.2-4.3-12.3-12.9-12.3H9.5v32.7h13.7C31.7,83.1,36,79,36,70.8z"/>
	<path d="M60.3,1.4h9.5v81.7h27.3v8.3H60.3V1.4z"/>
	<path d="M114,91.4h-9.5V21.2c0-6.3,1.9-11.4,5.7-15.3S119.6,0,127.1,0s13.1,1.9,16.9,5.8c3.8,3.9,5.7,9,5.7,15.3v70.2h-9.5V21.5
		c0-8.6-4.4-12.9-13.1-12.9S114,12.9,114,21.5C114,21.5,114,91.4,114,91.4z"/>
	<path d="M164.6,19.7c0-12.7,8-19,24.1-19c5.2,0,10.4,0.7,15.5,2.1v8.8c-5.3-1.5-10.5-2.3-15.8-2.3c-5.3,0-9,0.9-11.1,2.8
		c-2.1,1.8-3.2,4.5-3.2,8.1v52.4c0,3.5,1.1,6.1,3.3,8s6,2.8,11.5,2.8s10.7-0.7,15.6-2.1v8.7c-4.5,1.4-9.7,2.1-15.8,2.1
		c-16.1,0-24.1-6.3-24.1-19L164.6,19.7L164.6,19.7z"/>
	<path d="M258.3,91.4h-9.5v-90h9.5V91.4z M242,46.5l-19.6,44.9h-10.6l20-45.1L212.9,1.4h10.3L242,46.5z"/>
	<path d="M536.8,6.1C532.6,2,526.3,0,517.9,0c-7.5,0-13.3,1.6-17.5,4.9c-4.2-3.3-10-4.9-17.5-4.9c-8.4,0-14.7,2-19,6.1
		c-4.3,4.1-6.4,9.5-6.4,16.4v68.9h15.8V23.3c0-6,3.2-8.9,9.6-8.9c6.4,0,9.6,3,9.6,8.9v68.1h0.1h15.7h0.1V23.3c0-6,3.2-8.9,9.6-8.9
		c6.4,0,9.6,3,9.6,8.9v68.1h15.8V22.5C543.2,15.6,541.1,10.2,536.8,6.1z"/>
</g>
</svg>
